<svg width="33" height="27" viewBox="0 0 33 27" fill="none" xmlns="http://www.w3.org/2000/svg">
<path d="M32.742 11.1178L29.2192 7.59489C29.0541 7.42978 28.8299 7.33691 28.5967 7.33691H27.7174V12.6195H33V11.7403C33 11.507 32.9072 11.2829 32.742 11.1178Z" fill="black"/>
<path d="M26.8369 14.3804C26.3507 14.3804 25.9565 13.9862 25.9565 13.5V7.33691H24.4891C24.0029 7.33691 23.6086 7.7311 23.6086 8.21737V18.7826C23.6086 19.1662 23.8544 19.4917 24.1969 19.6123C24.1967 19.6293 24.1956 19.646 24.1956 19.663C24.1956 21.605 25.7753 23.1848 27.7173 23.1848C29.6593 23.1848 31.2391 21.6051 31.2391 19.663H32.1195C32.6058 19.663 33 19.2689 33 18.7826V14.3804H26.8369ZM27.7174 21.4239C26.7464 21.4239 25.9565 20.634 25.9565 19.663C25.9565 19.4926 25.9814 19.3278 26.0268 19.1718C26.0423 19.1405 26.0567 19.1084 26.0685 19.075C26.3018 18.4203 26.8946 17.9664 27.5713 17.9088C27.5779 17.9083 27.5844 17.9077 27.5909 17.9073C27.6329 17.9041 27.6749 17.9022 27.7174 17.9022C27.7598 17.9022 27.8019 17.9041 27.8438 17.9073C27.8504 17.9077 27.8569 17.9082 27.8634 17.9088C28.54 17.9664 29.1329 18.4203 29.3662 19.075C29.3781 19.1084 29.3925 19.1405 29.4079 19.1718C29.4534 19.3279 29.4782 19.4926 29.4782 19.663C29.4782 20.634 28.6884 21.4239 27.7174 21.4239Z" fill="black"/>
<path d="M20.634 3.81525H1.21379C0.543721 3.81525 0 4.20959 0 4.6957V14.3805H21.8478V4.6957C21.8478 4.20959 21.3041 3.81525 20.634 3.81525Z" fill="black"/>
<path d="M0 16.1413V18.7826C0 19.2688 0.394189 19.6631 0.880453 19.6631H1.76091C1.76091 21.6051 3.34062 23.1848 5.28267 23.1848C7.22466 23.1848 8.80443 21.6051 8.80443 19.6631H21C22 19.6631 22 19.2689 22 18.7826V16.1413H0ZM5.28261 21.4239C4.31162 21.4239 3.52176 20.6341 3.52176 19.6631C3.52176 19.4926 3.5466 19.3278 3.592 19.1717C3.60751 19.1405 3.6219 19.1084 3.63377 19.075C3.86706 18.4202 4.45985 17.9664 5.13654 17.9087C5.14308 17.9082 5.14962 17.9077 5.15616 17.9072C5.19808 17.9042 5.24016 17.9022 5.28261 17.9022C5.32506 17.9022 5.36715 17.9042 5.40902 17.9073C5.41561 17.9077 5.4221 17.9082 5.42863 17.9088C6.10532 17.9664 6.69811 18.4203 6.93141 19.075C6.94332 19.1084 6.95772 19.1405 6.97317 19.1718C7.01863 19.3279 7.04341 19.4926 7.04341 19.6631C7.04347 20.6341 6.25361 21.4239 5.28261 21.4239Z" fill="black"/>
</svg>
