<svg width="42" height="42" viewBox="0 0 42 42" fill="none" xmlns="http://www.w3.org/2000/svg">
<path d="M37.5134 15.0089C37.2929 14.6267 36.8819 14.3893 36.4408 14.3893H30.6562V19.0906C30.7089 19.0817 30.7628 19.076 30.818 19.076H39.8592L37.5134 15.0089Z" fill="black"/>
<path d="M40.848 25.0183V21.0204H30.818C30.7628 21.0204 30.7089 21.0148 30.6562 21.0058V24.9854H28.9548V11.2314H1.69944V24.9854H1.45835C0.652969 24.9854 0 25.6384 0 26.4438C0 27.2491 0.652969 27.9021 1.45835 27.9021H1.56844H4.4812C4.56725 25.6826 6.39868 23.9032 8.63887 23.9032C10.8791 23.9032 12.7107 25.6826 12.7965 27.9021H29.0858H31.5121C31.5981 25.6826 33.4295 23.9032 35.6698 23.9032C37.91 23.9032 39.7416 25.6826 39.8275 27.9021H40.5416C41.3469 27.9021 41.9999 27.2491 41.9999 26.4438C42 25.7435 41.5062 25.1591 40.848 25.0183Z" fill="black"/>
<path d="M8.63889 25.3615C7.14822 25.3615 5.9353 26.5743 5.9353 28.0651C5.9353 29.5558 7.14813 30.7687 8.63889 30.7687C10.1296 30.7687 11.3425 29.5559 11.3425 28.0651C11.3425 26.5743 10.1296 25.3615 8.63889 25.3615Z" fill="black"/>
<path d="M35.6699 25.3615C34.1792 25.3615 32.9663 26.5743 32.9663 28.0651C32.9663 29.5558 34.1791 30.7687 35.6699 30.7687C37.1606 30.7687 38.3735 29.5559 38.3735 28.0651C38.3734 26.5743 37.1606 25.3615 35.6699 25.3615Z" fill="black"/>
</svg>
