<svg width="26" height="26" viewBox="0 0 26 26" fill="none" xmlns="http://www.w3.org/2000/svg">
<g clip-path="url(#clip0_8_19)">
<path d="M25.8596 11.3171L21.8669 4.50509C21.6836 4.1922 21.3481 4 20.9854 4H1.02186C0.457505 3.99992 0 4.45746 0 5.02181V18.1011C0 18.6655 0.457505 19.1229 1.02186 19.1229H3.05541C3.31193 20.8526 4.80624 22.1841 6.60606 22.1841C8.40592 22.1841 9.90032 20.8527 10.1568 19.1229H15.8433C16.0998 20.8526 17.5941 22.1841 19.3939 22.1841C21.1938 22.1841 22.6882 20.8527 22.9447 19.1229H24.9782C25.5426 19.1229 26 18.6654 26 18.1011V11.8338C25.9999 11.6522 25.9514 11.4738 25.8596 11.3171ZM6.60597 20.454C5.58055 20.454 4.74626 19.6197 4.74626 18.5942C4.74626 17.5687 5.58055 16.7344 6.60597 16.7344C7.63148 16.7344 8.46586 17.5687 8.46586 18.5942C8.46586 19.6197 7.63153 20.454 6.60597 20.454ZM19.3938 20.454C18.3684 20.454 17.5341 19.6197 17.5341 18.5942C17.5341 17.5687 18.3684 16.7344 19.3938 16.7344C20.4193 16.7344 21.2537 17.5687 21.2537 18.5942C21.2537 19.6197 20.4193 20.454 19.3938 20.454ZM15.783 10.8802V6.50445H19.832L22.7432 10.8802H15.783Z" fill="black"/>
</g>
<defs>
<clipPath id="clip0_8_19">
<rect width="26" height="26" fill="white"/>
</clipPath>
</defs>
</svg>
